{
    "accessors" : [
        {
            "bufferView" : 0, 
            "componentType" : 5123, 
            "count" : 15936, 
            "max" : [
                6611
            ], 
            "min" : [
                0
            ], 
            "type" : "SCALAR"
        }, 
        {
            "bufferView" : 1, 
            "componentType" : 5126, 
            "count" : 6612, 
            "max" : [
                24.286653518676758, 
                28.28458595275879, 
                -0.0
            ], 
            "min" : [
                -24.286653518676758, 
                -28.284587860107422, 
                -89.5361557006836
            ], 
            "type" : "VEC3"
        }, 
        {
            "bufferView" : 2, 
            "componentType" : 5126, 
            "count" : 6612, 
            "max" : [
                1.0, 
                1.0, 
                1.0
            ], 
            "min" : [
                -1.0, 
                -1.0, 
                -1.0
            ], 
            "type" : "VEC3"
        }, 
        {
            "bufferView" : 3, 
            "componentType" : 5126, 
            "count" : 6612, 
            "max" : [
                1.0, 
                1.0, 
                1.0, 
                1.0
            ], 
            "min" : [
                -1.0, 
                -1.0, 
                -1.0, 
                1.0
            ], 
            "type" : "VEC4"
        }, 
        {
            "bufferView" : 4, 
            "componentType" : 5126, 
            "count" : 6612, 
            "max" : [
                0.9921875, 
                0.9921875
            ], 
            "min" : [
                0.007812497206032276, 
                0.008079230785369873
            ], 
            "type" : "VEC2"
        }
    ], 
    "asset" : {
        "generator" : "Khronos Blender glTF 2.0 exporter", 
        "version" : "2.0"
    }, 
    "bufferViews" : [
        {
            "buffer" : 0, 
            "byteLength" : 31872, 
            "byteOffset" : 0, 
            "target" : 34963
        }, 
        {
            "buffer" : 0, 
            "byteLength" : 79344, 
            "byteOffset" : 31872, 
            "target" : 34962
        }, 
        {
            "buffer" : 0, 
            "byteLength" : 79344, 
            "byteOffset" : 111216, 
            "target" : 34962
        }, 
        {
            "buffer" : 0, 
            "byteLength" : 105792, 
            "byteOffset" : 190560, 
            "target" : 34962
        }, 
        {
            "buffer" : 0, 
            "byteLength" : 52896, 
            "byteOffset" : 296352, 
            "target" : 34962
        }
    ], 
    "buffers" : [
        {
            "byteLength" : 349248, 
            "uri" : "LargeDisplaySteamer_3D.bin"
        }
    ], 
    "images" : [
        {
            "uri" : "T_LargeDisplaySteamer_3D_BaseColor_Alpha.png"
        }, 
        {
            "uri" : "T_LargeDisplaySteamer_3D_Occlusion_Roughness_Metalic.png"
        }, 
        {
            "uri" : "T_LargeDisplaySteamer_3D_Normal.png"
        }
    ], 
    "materials" : [
        {
            "name" : "lambert1", 
            "normalTexture" : {
                "index" : 2
            }, 
            "occlusionTexture" : {
                "index" : 1
            }, 
            "pbrMetallicRoughness" : {
                "baseColorTexture" : {
                    "index" : 0
                }, 
                "metallicRoughnessTexture" : {
                    "index" : 1
                }
            }
        }
    ], 
    "meshes" : [
        {
            "name" : "Untitled", 
            "primitives" : [
                {
                    "attributes" : {
                        "NORMAL" : 2, 
                        "POSITION" : 1, 
                        "TANGENT" : 3, 
                        "TEXCOORD_0" : 4
                    }, 
                    "indices" : 0, 
                    "material" : 0
                }
            ]
        }
    ], 
    "nodes" : [
        {
            "name" : "Camera", 
            "rotation" : [
                0.483536034822464, 
                0.33687159419059753, 
                -0.20870360732078552, 
                0.7804827094078064
            ], 
            "translation" : [
                7.481131553649902, 
                5.34366512298584, 
                6.5076398849487305
            ]
        }, 
        {
            "name" : "Lamp", 
            "rotation" : [
                0.16907575726509094, 
                0.7558802962303162, 
                -0.27217137813568115, 
                0.570947527885437
            ], 
            "scale" : [
                1.0, 
                1.0, 
                0.9999999403953552
            ], 
            "translation" : [
                4.076245307922363, 
                5.903861999511719, 
                -1.0054539442062378
            ]
        }, 
        {
            "mesh" : 0, 
            "name" : "LargeDisplaySteamer_3D", 
            "rotation" : [
                0.7071068286895752, 
                0.0, 
                -0.0, 
                0.7071067094802856
            ], 
            "scale" : [
                0.009999999776482582, 
                0.009999999776482582, 
                0.009999999776482582
            ]
        }
    ], 
    "samplers" : [
        {}
    ], 
    "scene" : 0, 
    "scenes" : [
        {
            "name" : "Scene", 
            "nodes" : [
                2, 
                1, 
                0
            ]
        }
    ], 
    "textures" : [
        {
            "sampler" : 0, 
            "source" : 0
        }, 
        {
            "sampler" : 0, 
            "source" : 1
        }, 
        {
            "sampler" : 0, 
            "source" : 2
        }
    ]
}
