{
    "asset": {
        "generator": "COLLADA2GLTF",
        "version": "2.0"
    },
    "scenes": [
        {
            "nodes": [
                0
            ]
        }
    ],
    "scene": 0,
    "nodes": [
        {
            "children": [
                1
            ],
            "matrix": [
                1.0,
                0.0,
                0.0,
                0.0,
                0.0,
                0.0,
                -1.0,
                0.0,
                0.0,
                1.0,
                0.0,
                0.0,
                0.0,
                0.0,
                0.0,
                1.0
            ],
            "name": "Z_UP"
        },
        {
            "mesh": 0,
            "matrix": [
                1.0,
                0.0,
                0.0,
                0.0,
                0.0,
                1.0,
                0.0,
                0.0,
                0.0,
                0.0,
                1.0,
                0.0,
                -0.801438570022583,
                1.2705473899841309,
                0.0,
                1.0
            ],
            "name": "product-62b3c08c-bd94-4fdb-bec2-26b846883254-body"
        }
    ],
    "meshes": [
        {
            "primitives": [
                {
                    "attributes": {
                        "NORMAL": 1,
                        "POSITION": 2
                    },
                    "indices": 0,
                    "mode": 4,
                    "material": 0
                },
                {
                    "attributes": {
                        "NORMAL": 4,
                        "POSITION": 5
                    },
                    "indices": 3,
                    "mode": 4,
                    "material": 1
                },
                {
                    "attributes": {
                        "NORMAL": 7,
                        "POSITION": 8
                    },
                    "indices": 6,
                    "mode": 4,
                    "material": 2
                },
                {
                    "attributes": {
                        "NORMAL": 10,
                        "POSITION": 11
                    },
                    "indices": 9,
                    "mode": 4,
                    "material": 3
                },
                {
                    "attributes": {
                        "NORMAL": 13,
                        "POSITION": 14
                    },
                    "indices": 12,
                    "mode": 4,
                    "material": 4
                }
            ],
            "name": "representation-1447"
        }
    ],
    "accessors": [
        {
            "bufferView": 0,
            "byteOffset": 0,
            "componentType": 5123,
            "count": 216,
            "max": [
                143
            ],
            "min": [
                0
            ],
            "type": "SCALAR"
        },
        {
            "bufferView": 1,
            "byteOffset": 0,
            "componentType": 5126,
            "count": 144,
            "max": [
                1.0,
                1.0,
                1.0
            ],
            "min": [
                -1.0,
                -1.0,
                -1.0
            ],
            "type": "VEC3"
        },
        {
            "bufferView": 1,
            "byteOffset": 1728,
            "componentType": 5126,
            "count": 144,
            "max": [
                1.5059499740600589,
                0.7747000455856323,
                0.7048499584197998
            ],
            "min": [
                0.019050000235438348,
                0.7620000243186951,
                0.17104999721050266
            ],
            "type": "VEC3"
        },
        {
            "bufferView": 0,
            "byteOffset": 432,
            "componentType": 5123,
            "count": 144,
            "max": [
                95
            ],
            "min": [
                0
            ],
            "type": "SCALAR"
        },
        {
            "bufferView": 1,
            "byteOffset": 3456,
            "componentType": 5126,
            "count": 96,
            "max": [
                1.0,
                1.0,
                1.0
            ],
            "min": [
                -1.0,
                -1.0,
                -1.0
            ],
            "type": "VEC3"
        },
        {
            "bufferView": 1,
            "byteOffset": 4608,
            "componentType": 5126,
            "count": 96,
            "max": [
                1.5250000953674317,
                0.7620000243186951,
                0.15200001001358033
            ],
            "min": [
                0.0,
                0.0,
                0.0
            ],
            "type": "VEC3"
        },
        {
            "bufferView": 0,
            "byteOffset": 720,
            "componentType": 5123,
            "count": 36,
            "max": [
                23
            ],
            "min": [
                0
            ],
            "type": "SCALAR"
        },
        {
            "bufferView": 1,
            "byteOffset": 5760,
            "componentType": 5126,
            "count": 24,
            "max": [
                1.0,
                1.0,
                1.0
            ],
            "min": [
                -1.0,
                -1.0,
                -1.0
            ],
            "type": "VEC3"
        },
        {
            "bufferView": 1,
            "byteOffset": 6048,
            "componentType": 5126,
            "count": 24,
            "max": [
                1.5440499782562256,
                0.7810500264167786,
                0.7620000243186951
            ],
            "min": [
                -0.019050000235438348,
                -0.019050000235438348,
                0.7239000201225281
            ],
            "type": "VEC3"
        },
        {
            "bufferView": 0,
            "byteOffset": 792,
            "componentType": 5123,
            "count": 84,
            "max": [
                47
            ],
            "min": [
                0
            ],
            "type": "SCALAR"
        },
        {
            "bufferView": 1,
            "byteOffset": 6336,
            "componentType": 5126,
            "count": 48,
            "max": [
                1.0,
                1.0,
                1.0
            ],
            "min": [
                -1.0,
                -1.0,
                -1.0
            ],
            "type": "VEC3"
        },
        {
            "bufferView": 1,
            "byteOffset": 6912,
            "componentType": 5126,
            "count": 48,
            "max": [
                1.5250000953674317,
                0.7620000243186951,
                0.7239000201225281
            ],
            "min": [
                0.0,
                0.0,
                0.15200001001358033
            ],
            "type": "VEC3"
        },
        {
            "bufferView": 0,
            "byteOffset": 960,
            "componentType": 5123,
            "count": 504,
            "max": [
                287
            ],
            "min": [
                0
            ],
            "type": "SCALAR"
        },
        {
            "bufferView": 1,
            "byteOffset": 7488,
            "componentType": 5126,
            "count": 288,
            "max": [
                1.0,
                1.0,
                1.0
            ],
            "min": [
                -1.0,
                -1.0,
                -1.0
            ],
            "type": "VEC3"
        },
        {
            "bufferView": 1,
            "byteOffset": 10944,
            "componentType": 5126,
            "count": 288,
            "max": [
                1.3725999593734742,
                0.8000999689102173,
                0.6667500138282776
            ],
            "min": [
                0.15240000188350678,
                0.7746999859809876,
                0.2920999825000763
            ],
            "type": "VEC3"
        }
    ],
    "materials": [
        {
            "pbrMetallicRoughness": {
                "baseColorFactor": [
                    0.9686274528503418,
                    0.9686274528503418,
                    0.9372548460960388,
                    1.0
                ],
                "metallicFactor": 0.0
            },
            "name": "surface-style-1326-木材---层压板---象牙白，粗面-fx"
        },
        {
            "pbrMetallicRoughness": {
                "baseColorFactor": [
                    0.06666666269302368,
                    0.06666666269302368,
                    0.06666666269302368,
                    1.0
                ],
                "metallicFactor": 0.0
            },
            "name": "surface-style-1368-钢，镀铬-fx"
        },
        {
            "pbrMetallicRoughness": {
                "baseColorFactor": [
                    0.886274516582489,
                    0.6941176652908325,
                    0.5019607543945313,
                    1.0
                ],
                "metallicFactor": 0.0
            },
            "name": "surface-style-1398-樱桃木-fx"
        },
        {
            "pbrMetallicRoughness": {
                "baseColorFactor": [
                    0.9686274528503418,
                    0.9686274528503418,
                    0.9372548460960388,
                    1.0
                ],
                "metallicFactor": 0.0
            },
            "name": "surface-style-1326-木材---层压板---象牙白，粗面-fx"
        },
        {
            "pbrMetallicRoughness": {
                "baseColorFactor": [
                    0.06666666269302368,
                    0.06666666269302368,
                    0.06666666269302368,
                    1.0
                ],
                "metallicFactor": 0.0
            },
            "name": "surface-style-1368-钢，镀铬-fx"
        }
    ],
    "bufferViews": [
        {
            "buffer": 0,
            "byteOffset": 14400,
            "byteLength": 1968,
            "target": 34963
        },
        {
            "buffer": 0,
            "byteOffset": 0,
            "byteLength": 14400,
            "byteStride": 12,
            "target": 34962
        }
    ],
    "buffers": [
        {
            "byteLength": 16368,
            "uri": "data:application/octet-stream;base64,"
        }
    ]
}
