<?xml version="1.0" encoding="utf-8"?>
<!-- Generator: Adobe Illustrator 14.0.0, SVG Export Plug-In . SVG Version: 6.00 Build 43363)  -->
<svg version="1.2" baseProfile="tiny" id="Livello_1"
	 xmlns="http://www.w3.org/2000/svg" xmlns:xlink="http://www.w3.org/1999/xlink" x="0px" y="0px" width="748.71px"
	 height="156.42px" viewBox="182.492 449.221 748.71 156.42" xml:space="preserve">
<g>
	<path fill="#FFFFFF" d="M398.191,482.05c-1.712,0.761-4.374,1.331-6.846,1.331c-7.987,0-12.551-5.134-12.551-13.12
		c0-8.558,5.134-13.312,12.74-13.312c2.662,0,4.944,0.57,6.466,1.331l0.95-3.423c-1.141-0.57-3.612-1.521-7.796-1.521
		c-10.078,0-16.924,6.846-16.924,17.114c0,10.649,6.846,16.354,15.973,16.354c3.993,0,7.036-0.761,8.558-1.521L398.191,482.05z"/>
	<path fill="#FFFFFF" d="M401.993,480.148c0,3.423,2.472,6.655,7.036,6.655c3.232,0,5.895-1.711,7.226-3.423h0.19l0.38,2.853h3.804
		c-0.381-1.521-0.381-3.612-0.381-5.515v-8.747c0-4.754-1.711-9.508-8.938-9.508c-2.852,0-5.704,0.761-7.605,2.092l0.95,2.853
		c1.712-1.142,3.993-1.712,6.085-1.712c4.754,0,5.324,3.423,5.324,5.325v0.57C406.938,471.401,401.993,474.634,401.993,480.148z
		 M416.065,474.443v3.994c0,0.38-0.189,0.95-0.189,1.331c-0.761,1.901-2.662,3.993-5.705,3.993c-2.092,0-3.993-1.331-3.993-3.993
		C406.177,475.204,411.501,474.443,416.065,474.443z"/>
	<path fill="#FFFFFF" d="M452.575,462.464c-2.282,0-3.803,0.57-5.134,1.712c-0.951,0.76-1.902,1.711-2.663,3.042h-0.189
		c-0.951-2.662-3.423-4.754-6.656-4.754c-3.803,0-6.085,2.092-7.416,4.374h-0.189l-0.19-3.804h-3.804
		c0.19,1.901,0.19,3.993,0.19,6.275v16.924h4.184v-14.071c0-0.761,0.19-1.521,0.38-2.092c0.761-2.092,2.663-4.184,5.325-4.184
		c3.232,0,4.943,2.662,4.943,6.466v13.881h4.184v-14.452c0-0.76,0.19-1.521,0.381-2.092c0.761-2.091,2.662-3.803,4.943-3.803
		c3.424,0,5.135,2.662,5.135,7.226v13.121h4.184v-13.691C460.372,464.556,455.808,462.464,452.575,462.464z"/>
	<path fill="#FFFFFF" d="M471.401,495.932v-12.74h0.19c1.331,2.281,4.184,3.612,7.227,3.612c5.515,0,10.648-4.183,10.648-12.55
		c0-7.036-4.184-11.79-9.889-11.79c-3.803,0-6.465,1.712-8.366,4.563h-0.19l-0.19-3.993h-3.803c0.19,2.282,0.19,4.564,0.19,7.606
		v25.291H471.401L471.401,495.932z M471.401,472.923c0-0.57,0.19-1.142,0.381-1.712c0.761-3.232,3.613-5.324,6.465-5.324
		c4.564,0,6.846,3.993,6.846,8.747c0,5.324-2.662,8.938-7.035,8.938c-3.043,0-5.515-2.092-6.275-4.944
		c-0.19-0.57-0.19-1.141-0.19-1.711v-3.993H471.401z"/>
	<path fill="#FFFFFF" d="M510.954,480.719v-8.747c0-4.754-1.712-9.508-8.938-9.508c-2.853,0-5.705,0.761-7.606,2.092l0.95,2.853
		c1.712-1.142,3.993-1.712,6.085-1.712c4.754,0,5.325,3.423,5.325,5.325v0.57c-8.938,0-14.072,3.042-14.072,8.747
		c0,3.423,2.473,6.655,7.036,6.655c3.232,0,5.895-1.711,7.226-3.423h0.19l0.381,2.853h3.803
		C511.144,484.712,510.954,482.811,510.954,480.719z M506.96,478.438c0,0.38-0.189,0.95-0.189,1.331
		c-0.761,1.901-2.662,3.993-5.705,3.993c-2.092,0-3.993-1.331-3.993-3.993c0-4.564,5.324-5.325,9.888-5.325V478.438z"/>
	<path fill="#FFFFFF" d="M519.891,459.041c1.712,0,2.662-1.141,2.662-2.662s-0.95-2.662-2.662-2.662
		c-1.521,0-2.662,1.141-2.662,2.662S518.37,459.041,519.891,459.041z"/>
	<rect x="517.799" y="463.034" fill="#FFFFFF" width="4.184" height="23.39"/>
	<path fill="#FFFFFF" d="M537.386,486.233c3.613,0,6.085-1.711,7.416-3.993h0.19v2.662c0,5.896-3.233,8.177-7.606,8.177
		c-2.853,0-5.324-0.95-6.846-1.901l-1.142,3.232c1.902,1.331,4.944,1.902,7.797,1.902s6.275-0.761,8.558-2.853
		c2.281-2.092,3.232-5.325,3.232-10.649V469.31c0-2.853,0.19-4.754,0.19-6.466h-3.804l-0.19,3.613h-0.189
		c-0.951-1.901-3.233-3.993-7.227-3.993c-5.324,0-10.458,4.563-10.458,12.36C527.497,481.289,531.49,486.233,537.386,486.233z
		 M538.717,465.887c3.042,0,5.134,2.092,5.895,4.563c0.19,0.571,0.19,1.142,0.19,1.902v4.183c0,0.761-0.19,1.521-0.38,2.282
		c-0.951,2.662-3.233,4.374-5.896,4.374c-4.563,0-6.846-3.804-6.846-8.367C531.681,469.31,534.533,465.887,538.717,465.887z"/>
	<path fill="#FFFFFF" d="M575.608,486.424v-13.882c0-7.986-4.944-9.888-8.177-9.888c-3.804,0-6.466,2.092-7.797,4.373h-0.189
		l-0.19-3.803h-3.804c0.19,1.901,0.19,3.993,0.19,6.275v16.924h4.184v-14.071c0-0.761,0.19-1.521,0.381-1.902
		c0.76-2.281,2.852-4.373,5.704-4.373c3.993,0,5.324,3.042,5.324,6.846v13.501H575.608z"/>
	<path fill="#FFFFFF" d="M597.285,461.894c0-3.804,1.331-6.846,5.705-6.846c2.092,0,3.993,0.57,4.944,1.331l1.141-3.232
		c-1.141-0.951-3.804-1.521-5.895-1.521c-6.466,0-10.079,3.993-10.079,10.078v1.331h-3.232v3.232h3.232v20.157h4.184v-20.157h9.318
		v20.157h4.183v-23.39h-13.501V461.894L597.285,461.894z"/>
	<path fill="#FFFFFF" d="M628.091,466.077c3.993,0,5.324,3.042,5.324,6.846v13.501h4.184v-13.882c0-7.986-4.944-9.888-8.177-9.888
		c-3.803,0-6.465,2.092-7.797,4.373h-0.189l-0.19-3.803h-3.803c0.189,1.901,0.189,3.993,0.189,6.275v16.924h4.184v-14.071
		c0-0.761,0.19-1.521,0.381-1.902C623.147,467.979,625.239,466.077,628.091,466.077z"/>
	<path fill="#FFFFFF" d="M656.995,483.381L656.995,483.381l0.57,2.853h3.803c-0.38-1.521-0.38-3.612-0.38-5.515v-8.747
		c0-4.754-1.712-9.508-8.938-9.508c-2.853,0-5.705,0.761-7.606,2.092l0.951,2.853c1.711-1.142,3.993-1.712,6.085-1.712
		c4.754,0,5.324,3.423,5.324,5.325v0.57c-8.938,0-14.071,3.042-14.071,8.747c0,3.423,2.472,6.655,7.035,6.655
		C653.192,486.804,655.854,485.283,656.995,483.381z M651.1,483.762c-2.092,0-3.993-1.331-3.993-3.993
		c0-4.564,5.324-5.325,9.889-5.325v3.994c0,0.38-0.19,0.95-0.19,1.331C656.044,481.86,654.143,483.762,651.1,483.762z"/>
	<path fill="#FFFFFF" d="M679.434,462.464c-3.804,0-6.466,2.092-7.797,4.374h-0.189l-0.19-3.804h-3.804
		c0.19,1.901,0.19,3.993,0.19,6.275v16.924h4.184v-14.071c0-0.761,0.19-1.521,0.38-1.901c0.761-2.282,2.853-4.374,5.705-4.374
		c3.993,0,5.324,3.043,5.324,6.846v13.501h4.184v-13.881C687.801,464.365,682.666,462.464,679.434,462.464z"/>
	<path fill="#FFFFFF" d="M705.486,465.887c2.281,0,3.993,0.57,4.944,1.141l0.95-3.232c-1.141-0.57-3.423-1.141-5.895-1.141
		c-7.606,0-12.551,5.134-12.551,12.36c0,7.226,4.563,11.979,11.6,11.979c3.043,0,5.515-0.761,6.655-1.331l-0.76-3.232
		c-1.142,0.57-2.853,1.141-5.135,1.141c-4.563,0-8.177-3.232-8.177-8.747C697.118,469.88,700.161,465.887,705.486,465.887z"/>
	<path fill="#FFFFFF" d="M725.642,486.804c3.804,0,6.275-0.761,7.797-1.521l-0.761-3.043c-1.521,0.761-3.423,1.141-6.466,1.141
		c-4.183,0-7.986-2.281-7.986-8.177h16.354c0-0.38,0.19-1.141,0.19-1.901c0-4.373-2.092-11.029-9.698-11.029
		c-6.846,0-11.029,5.515-11.029,12.551C714.233,482.05,718.416,486.804,725.642,486.804z M724.881,465.507
		c4.754,0,5.896,4.183,5.896,6.846h-12.36C718.606,469.5,720.508,465.507,724.881,465.507z"/>
	<path fill="#FFFFFF" d="M760.251,452.195h-4.184v13.882h-0.19c-1.141-1.901-3.423-3.613-7.036-3.613
		c-5.704,0-10.458,4.754-10.458,12.551c0,7.035,4.373,11.789,9.888,11.789c3.804,0,6.655-1.901,7.986-4.563h0.19l0.19,3.993h3.803
		c-0.189-1.521-0.189-3.993-0.189-6.085V452.195z M755.877,476.535c0,0.761,0,1.331-0.19,1.902
		c-0.761,3.232-3.423,5.134-6.275,5.134c-4.563,0-6.846-3.993-6.846-8.557c0-5.135,2.663-8.938,7.036-8.938
		c3.232,0,5.515,2.281,6.085,4.944c0.19,0.57,0.19,1.331,0.19,1.711V476.535L755.877,476.535z"/>
	<path fill="#FFFFFF" d="M387.256,545.277L387.256,545.277l0.57,2.853h3.804c-0.381-1.521-0.381-3.612-0.381-5.515v-8.747
		c0-4.754-1.711-9.508-8.938-9.508c-2.852,0-5.704,0.761-7.606,2.092l0.951,2.853c1.712-1.142,3.993-1.712,6.085-1.712
		c4.754,0,5.324,3.423,5.324,5.325v0.57c-8.938,0-14.071,3.042-14.071,8.747c0,3.423,2.472,6.655,7.036,6.655
		C383.453,548.7,385.925,547.18,387.256,545.277z M381.171,545.658c-2.092,0-3.993-1.331-3.993-3.993
		c0-4.564,5.324-5.325,9.888-5.325v3.994c0,0.38-0.189,0.95-0.189,1.331C386.115,543.757,384.214,545.658,381.171,545.658z"/>
	<path fill="#FFFFFF" d="M407.984,548.7c3.042,0,5.515-0.761,6.655-1.331l-0.761-3.232c-1.141,0.57-2.853,1.141-5.134,1.141
		c-4.564,0-8.177-3.232-8.177-8.747c0-4.944,2.852-8.747,8.177-8.747c2.281,0,3.993,0.57,4.944,1.141l0.95-3.232
		c-1.141-0.57-3.423-1.141-5.895-1.141c-7.606,0-12.551,5.134-12.551,12.36C396.384,543.946,400.948,548.7,407.984,548.7z"/>
	<path fill="#FFFFFF" d="M435.176,544.137c-1.141,0.57-2.853,1.141-5.134,1.141c-4.564,0-8.178-3.232-8.178-8.747
		c0-4.944,2.853-8.747,8.178-8.747c2.281,0,3.993,0.57,4.943,1.141l0.951-3.232c-1.141-0.57-3.423-1.141-5.895-1.141
		c-7.606,0-12.551,5.134-12.551,12.36c0,7.226,4.563,11.979,11.6,11.979c3.043,0,5.515-0.761,6.655-1.331L435.176,544.137z"/>
	<path fill="#FFFFFF" d="M450.008,548.7c5.705,0,11.6-3.803,11.6-12.36c0-7.035-4.563-11.979-11.219-11.979
		c-6.466,0-11.6,4.563-11.6,12.36C438.98,544.137,443.734,548.7,450.008,548.7z M450.389,527.593c4.944,0,7.036,4.944,7.036,8.938
		c0,5.324-3.043,9.128-7.036,9.128c-4.184,0-7.036-3.804-7.036-8.938C443.162,532.157,445.445,527.593,450.389,527.593z"/>
	<path fill="#FFFFFF" d="M477.2,528.354c0.571,0,0.951,0,1.521,0.19v-3.993c-0.38-0.19-0.761-0.19-1.141-0.19
		c-2.853,0-5.324,1.901-6.466,5.134h-0.189l-0.19-4.563h-3.803c0.189,2.092,0.189,4.563,0.189,7.227v15.973h4.184v-12.36
		c0-0.761,0.19-1.331,0.19-1.901C472.067,530.636,474.158,528.354,477.2,528.354z"/>
	<path fill="#FFFFFF" d="M490.512,548.7c3.804,0,6.655-1.901,7.986-4.563h0.19l0.19,3.993h3.803c-0.19-1.521-0.19-3.993-0.19-6.085
		v-27.953h-4.183v13.882h-0.19c-1.141-1.901-3.423-3.613-7.036-3.613c-5.704,0-10.458,4.754-10.458,12.551
		C480.624,543.946,484.997,548.7,490.512,548.7z M491.843,527.783c3.232,0,5.515,2.282,6.085,4.944c0.19,0.57,0.19,1.331,0.19,1.711
		v3.993c0,0.761,0,1.331-0.19,1.902c-0.761,3.232-3.423,5.134-6.275,5.134c-4.563,0-6.846-3.993-6.846-8.557
		C484.997,531.586,487.47,527.783,491.843,527.783z"/>
	<rect x="509.528" y="524.931" fill="#FFFFFF" width="4.184" height="23.39"/>
	<path fill="#FFFFFF" d="M511.429,520.938c1.712,0,2.662-1.141,2.662-2.662s-0.95-2.662-2.662-2.662
		c-1.521,0-2.662,1.141-2.662,2.662C508.957,519.797,510.098,520.938,511.429,520.938z"/>
	<path fill="#FFFFFF" d="M532.347,524.36c-3.804,0-6.466,2.092-7.797,4.374h-0.189l-0.19-3.804h-3.804
		c0.19,1.901,0.19,3.993,0.19,6.275v16.924h4.184v-14.071c0-0.761,0.19-1.521,0.38-1.901c0.761-2.282,2.853-4.374,5.705-4.374
		c3.993,0,5.324,3.043,5.324,6.846v13.501h4.184v-13.881C540.524,526.262,535.579,524.36,532.347,524.36z"/>
	<path fill="#FFFFFF" d="M563.723,528.544L563.723,528.544c-1.142-1.901-3.233-3.993-7.416-3.993
		c-5.325,0-10.459,4.563-10.459,12.36c0,6.465,4.184,11.409,9.889,11.409c3.612,0,6.085-1.712,7.416-3.993h0.19v2.662
		c0,5.895-3.233,8.177-7.606,8.177c-2.853,0-5.325-0.951-6.846-1.901l-1.142,3.232c1.902,1.331,4.944,1.901,7.797,1.901
		s6.275-0.761,8.557-2.853c2.282-2.092,3.233-5.324,3.233-10.648v-13.501c0-2.853,0.189-4.754,0.189-6.466h-3.803V528.544z
		 M563.153,538.242c0,0.761-0.19,1.521-0.381,2.281c-0.95,2.662-3.232,4.374-5.895,4.374c-4.563,0-6.846-3.803-6.846-8.367
		c0-5.324,2.853-8.747,6.846-8.747c3.042,0,5.134,2.092,5.895,4.563c0.19,0.571,0.19,1.142,0.19,1.902v3.993H563.153z"/>
	<path fill="#FFFFFF" d="M589.775,518.275l-4.184,1.141v5.515h-3.613v3.232h3.613v12.741c0,2.662,0.38,4.754,1.711,6.085
		c0.951,1.141,2.662,1.711,4.564,1.711c1.711,0,2.853-0.189,3.803-0.57l-0.189-3.232c-0.571,0.19-1.332,0.38-2.473,0.38
		c-2.281,0-3.232-1.711-3.232-4.563v-12.551h6.085v-3.232h-6.085V518.275L589.775,518.275z"/>
	<path fill="#FFFFFF" d="M610.121,524.36c-6.466,0-11.6,4.563-11.6,12.36c0,7.416,4.944,11.979,11.22,11.979
		c5.704,0,11.6-3.803,11.6-12.36C621.341,529.305,616.967,524.36,610.121,524.36z M609.931,545.658
		c-4.184,0-7.035-3.804-7.035-8.938c0-4.374,2.091-9.128,7.226-9.128c4.944,0,7.036,4.944,7.036,8.938
		C617.157,541.854,614.115,545.658,609.931,545.658z"/>
	<path fill="#FFFFFF" d="M643.874,514.187c-3.043,3.993-6.275,10.269-6.275,19.776c0,9.318,3.232,15.594,6.275,19.587h3.232
		c-3.423-4.754-6.085-11.029-6.085-19.587c0-8.747,2.473-15.022,6.085-19.776H643.874z"/>
	<polygon fill="#FFFFFF" points="656.044,532.442 668.785,532.442 668.785,529.02 656.044,529.02 656.044,518.751 669.545,518.751 
		669.545,515.138 651.861,515.138 651.861,547.654 670.116,547.654 670.116,544.231 656.044,544.231 	"/>
	<path fill="#FFFFFF" d="M695.217,534.344c0,7.226-3.043,10.269-7.986,10.269c-4.374,0-7.606-3.043-7.606-10.269v-19.206h-4.184
		v19.206c0,10.078,4.944,13.881,11.6,13.881c7.036,0,12.36-4.183,12.36-14.071v-19.016h-4.184V534.344z"/>
	<path fill="#FFFFFF" d="M704.155,514.187c3.423,4.754,6.085,11.029,6.085,19.587c0,8.747-2.662,15.022-6.085,19.776h3.232
		c3.043-4.184,6.275-10.269,6.275-19.587c0-9.508-3.232-15.593-6.275-19.586h-3.232V514.187z"/>
	<path fill="#FFFFFF" d="M734.39,529.02h-0.19l-0.19-4.564h-3.803c0.189,2.092,0.189,4.564,0.189,7.227v15.973h4.184v-12.36
		c0-0.76,0.19-1.331,0.19-1.901c0.57-3.232,2.662-5.515,5.705-5.515c0.57,0,0.95,0,1.521,0.19v-3.993
		c-0.38-0.19-0.761-0.19-1.141-0.19C738.002,523.885,735.531,525.786,734.39,529.02z"/>
	<path fill="#FFFFFF" d="M755.116,523.885c-6.846,0-11.029,5.515-11.029,12.551c0,7.035,4.374,11.789,11.41,11.789
		c3.803,0,6.274-0.76,7.796-1.521l-0.761-3.043c-1.521,0.761-3.423,1.142-6.465,1.142c-4.184,0-7.986-2.282-7.986-8.178h16.354
		c0-0.38,0.189-1.141,0.189-1.901C764.624,530.54,762.723,523.885,755.116,523.885z M748.271,533.773
		c0.381-2.853,2.282-6.846,6.466-6.846c4.754,0,5.895,4.184,5.895,6.846H748.271z"/>
	<path fill="#FFFFFF" d="M786.113,527.878L786.113,527.878c-1.142-1.901-3.233-3.993-7.416-3.993
		c-5.325,0-10.459,4.563-10.459,12.36c0,6.466,4.184,11.409,9.889,11.409c3.612,0,6.085-1.711,7.416-3.993h0.189v2.662
		c0,5.896-3.232,8.177-7.605,8.177c-2.853,0-5.325-0.95-6.846-1.901l-1.142,3.232c1.901,1.331,4.944,1.902,7.797,1.902
		s6.275-0.761,8.557-2.853c2.282-2.092,3.233-5.324,3.233-10.649V530.73c0-2.853,0.189-4.754,0.189-6.465h-3.803V527.878z
		 M785.732,537.767c0,0.761-0.189,1.521-0.38,2.281c-0.951,2.663-3.232,4.374-5.895,4.374c-4.564,0-6.846-3.803-6.846-8.367
		c0-5.324,2.852-8.747,6.846-8.747c3.042,0,5.134,2.092,5.895,4.563c0.19,0.571,0.19,1.142,0.19,1.902v3.993H785.732z"/>
	<path fill="#FFFFFF" d="M816.348,524.266h-4.184v14.262c0,0.761-0.19,1.521-0.381,2.092c-0.761,1.901-2.662,3.803-5.515,3.803
		c-3.803,0-5.134-3.043-5.134-7.416v-12.74h-4.184v13.691c0,8.177,4.373,10.268,7.986,10.268c4.184,0,6.655-2.472,7.797-4.373h0.189
		l0.19,3.803h3.804c-0.19-1.901-0.19-3.993-0.19-6.275v-17.113H816.348z"/>
	<rect x="823.383" y="513.426" fill="#FFFFFF" width="4.184" height="34.229"/>
	<path fill="#FFFFFF" d="M851.147,533.393c0-4.754-1.712-9.508-8.938-9.508c-2.853,0-5.705,0.761-7.606,2.092l0.95,2.853
		c1.712-1.141,3.994-1.712,6.086-1.712c4.754,0,5.324,3.423,5.324,5.325v0.57c-8.938,0-14.072,3.042-14.072,8.747
		c0,3.423,2.473,6.655,7.036,6.655c3.232,0,5.895-1.711,7.226-3.423h0.19l0.381,2.853h3.803c-0.38-1.521-0.38-3.613-0.38-5.515
		V533.393z M847.153,539.858c0,0.38-0.189,0.95-0.189,1.331c-0.761,1.901-2.662,3.993-5.705,3.993c-2.092,0-3.993-1.331-3.993-3.993
		c0-4.564,5.324-5.324,9.888-5.324V539.858z"/>
	<path fill="#FFFFFF" d="M862.936,517.609l-4.184,1.142v5.515h-3.612v3.232h3.612v12.74c0,2.662,0.381,4.754,1.712,6.085
		c0.95,1.142,2.662,1.712,4.563,1.712c1.712,0,2.853-0.19,3.804-0.57l-0.19-3.233c-0.57,0.19-1.331,0.381-2.472,0.381
		c-2.282,0-3.233-1.712-3.233-4.564v-12.55h6.085v-3.232h-6.085V517.609L862.936,517.609z"/>
	<path fill="#FFFFFF" d="M875.949,515.138c-1.521,0-2.662,1.141-2.662,2.662s1.142,2.662,2.473,2.662
		c1.711,0,2.662-1.141,2.662-2.662C878.613,516.278,877.661,515.138,875.949,515.138z"/>
	<rect x="873.776" y="524.266" fill="#FFFFFF" width="4.183" height="23.389"/>
	<path fill="#FFFFFF" d="M894.883,523.885c-6.466,0-11.6,4.563-11.6,12.36c0,7.416,4.943,11.979,11.219,11.979
		c5.705,0,11.6-3.803,11.6-12.359C906.102,528.639,901.729,523.885,894.883,523.885z M894.693,544.992
		c-4.184,0-7.036-3.803-7.036-8.938c0-4.373,2.092-9.127,7.227-9.127c4.943,0,7.035,4.943,7.035,8.938
		C901.918,541.189,898.876,544.992,894.693,544.992z"/>
	<path fill="#FFFFFF" d="M923.216,523.885c-3.803,0-6.465,2.092-7.796,4.374h-0.19l-0.19-3.804h-3.803
		c0.189,1.902,0.189,3.993,0.189,6.275v16.924h4.184v-14.071c0-0.761,0.19-1.521,0.381-1.901c0.761-2.282,2.853-4.374,5.704-4.374
		c3.994,0,5.325,3.043,5.325,6.846v13.501h4.183v-13.881C931.393,525.786,926.259,523.885,923.216,523.885z"/>
	<path fill="#FFFFFF" d="M388.967,581.871c-3.803,0-6.465,2.092-7.796,4.374h-0.19l-0.19-3.804h-3.803
		c0.189,1.902,0.189,3.993,0.189,6.275v16.924h4.184v-14.071c0-0.761,0.19-1.521,0.381-1.901c0.761-2.282,2.852-4.374,5.704-4.374
		c3.993,0,5.325,3.043,5.325,6.846v13.501h4.183V591.76C397.144,583.772,392.199,581.871,388.967,581.871z"/>
	<path fill="#FFFFFF" d="M413.878,581.871c-6.466,0-11.6,4.563-11.6,12.36c0,7.416,4.943,11.979,11.219,11.979
		c5.705,0,11.6-3.803,11.6-12.359C425.097,586.625,420.724,581.871,413.878,581.871z M413.688,602.979
		c-4.184,0-7.036-3.803-7.036-8.938c0-4.373,2.092-9.127,7.227-9.127c4.943,0,7.035,4.943,7.035,8.938
		C420.913,599.176,417.871,602.979,413.688,602.979z"/>
	<path fill="#FFFFFF" d="M431.182,600.126c-1.711,0-2.853,1.331-2.853,3.043c0,1.711,1.142,3.042,2.853,3.042
		c1.712,0,2.853-1.331,2.853-3.042C434.034,601.457,432.894,600.126,431.182,600.126z"/>
	<polygon fill="#FFFFFF" points="450.958,578.068 451.909,581.301 457.234,578.258 457.424,578.258 457.424,605.641 
		461.417,605.641 461.417,574.265 457.804,574.265 	"/>
	<path fill="#FFFFFF" d="M485.377,588.717L485.377,588.717c3.803-1.521,5.705-4.184,5.705-7.416c0-3.803-2.853-7.416-8.938-7.416
		c-3.423,0-6.466,1.141-8.177,2.472l1.141,3.043c1.331-0.951,3.803-2.092,6.275-2.092c3.993,0,5.515,2.281,5.515,4.754
		c0,3.803-3.993,5.324-7.036,5.324h-2.282v3.232h2.282c4.184,0,7.986,1.902,8.177,6.275c0,2.662-1.711,6.085-7.036,6.085
		c-2.852,0-5.704-1.141-6.846-1.901l-1.141,3.232c1.521,0.951,4.563,2.092,8.177,2.092c7.606,0,11.409-4.373,11.409-9.317
		C492.413,592.33,489.18,589.478,485.377,588.717z"/>
	<path fill="#FFFFFF" d="M508.006,573.885c-6.275,0-10.839,5.704-10.839,16.354c0.189,10.269,4.184,16.163,10.269,16.163
		c6.846,0,10.839-5.895,10.839-16.544C518.464,579.779,514.661,573.885,508.006,573.885z M507.816,602.979
		c-3.803,0-6.275-4.563-6.275-12.74c0-8.558,2.662-13.121,6.466-13.121c4.373,0,6.275,5.135,6.275,12.74
		C514.281,597.845,512.19,602.979,507.816,602.979z"/>
	<path fill="#FFFFFF" d="M536.72,588.907L536.72,588.907c3.803-1.901,5.134-4.754,5.134-7.416c0-3.993-3.042-7.797-9.127-7.797
		c-5.515,0-9.698,3.423-9.698,8.367c0,2.662,1.521,5.324,4.944,7.036v0.189c-3.804,1.712-6.275,4.374-6.275,8.367
		c0,4.563,3.993,8.557,10.459,8.557c5.895,0,10.648-3.612,10.648-9.127C543.185,593.28,540.713,590.618,536.72,588.907z
		 M527.212,581.871c0-2.662,1.901-4.944,5.515-4.944c3.803,0,5.324,2.662,5.324,5.135c0,2.853-2.092,4.754-4.754,5.704
		C529.493,586.625,527.212,584.914,527.212,581.871z M532.536,603.169c-3.993,0-6.466-2.853-6.275-5.895
		c0-3.043,1.901-5.325,5.705-6.466c4.184,1.141,6.846,3.043,6.846,6.846C538.812,600.697,536.339,603.169,532.536,603.169z"/>
	<polygon fill="#FFFFFF" points="544.897,607.543 548.129,607.543 561.63,572.743 558.207,572.743 	"/>
	<path fill="#FFFFFF" d="M569.427,602.028l2.472-2.282c6.655-6.275,10.839-11.029,10.839-16.734c0-4.563-2.852-9.127-9.508-9.127
		c-3.612,0-6.655,1.331-8.938,3.232l1.332,3.043c1.521-1.142,3.803-2.662,6.655-2.662c4.754,0,6.274,2.852,6.274,6.085
		c0,4.754-3.612,8.747-11.6,16.354l-3.232,3.232v2.662h19.967v-3.613L569.427,602.028L569.427,602.028z"/>
	<path fill="#FFFFFF" d="M598.711,573.885c-6.275,0-10.839,5.704-10.839,16.354c0.19,10.269,4.184,16.163,10.269,16.163
		c6.846,0,10.839-5.895,10.839-16.544C609.17,579.779,605.366,573.885,598.711,573.885z M598.521,602.979
		c-3.803,0-6.274-4.563-6.274-12.74c0-8.558,2.662-13.121,6.465-13.121c4.374,0,6.275,5.135,6.275,12.74
		C604.796,597.845,602.895,602.979,598.521,602.979z"/>
	<polygon fill="#FFFFFF" points="615.825,578.068 616.777,581.301 622.101,578.258 622.291,578.258 622.291,605.641 
		626.284,605.641 626.284,574.265 622.671,574.265 	"/>
	<path fill="#FFFFFF" d="M650.244,588.717L650.244,588.717c3.803-1.521,5.704-4.184,5.704-7.416c0-3.803-2.853-7.416-8.938-7.416
		c-3.423,0-6.465,1.141-8.177,2.472l1.142,3.043c1.331-0.951,3.803-2.092,6.275-2.092c3.993,0,5.514,2.281,5.514,4.754
		c0,3.803-3.993,5.324-7.035,5.324h-2.282v3.232h2.282c4.184,0,7.986,1.902,8.177,6.275c0,2.662-1.712,6.085-7.036,6.085
		c-2.853,0-5.705-1.141-6.846-1.901l-1.141,3.232c1.521,0.951,4.563,2.092,8.177,2.092c7.606,0,11.409-4.373,11.409-9.317
		C657.09,592.33,654.047,589.478,650.244,588.717z"/>
	<polygon fill="#FFFFFF" points="256.043,469.589 262.643,464.779 269.244,469.589 266.793,461.856 273.393,457.047 
		265.189,457.047 262.643,449.221 260.097,457.047 251.894,457.047 258.589,461.856 	"/>
	<polygon fill="#FFFFFF" points="297.816,458.084 295.27,465.911 287.066,465.911 293.761,470.721 291.215,478.452 297.816,473.644 
		304.417,478.452 301.965,470.721 308.566,465.911 300.362,465.911 	"/>
	<polygon fill="#FFFFFF" points="316.675,503.912 323.276,499.104 329.97,503.912 327.425,496.18 334.025,491.371 325.822,491.371 
		323.276,483.544 320.729,491.371 312.621,491.371 319.221,496.18 	"/>
	<polygon fill="#FFFFFF" points="335.156,526.354 332.611,518.623 330.065,526.354 321.862,526.354 328.462,531.163 325.915,538.99 
		332.611,534.181 339.212,538.99 336.665,531.163 343.266,526.354 	"/>
	<polygon fill="#FFFFFF" points="325.822,561.243 323.276,553.512 320.729,561.243 312.621,561.243 319.221,566.053 
		316.675,573.878 323.276,569.07 329.97,573.878 327.425,566.053 334.025,561.243 	"/>
	<polygon fill="#FFFFFF" points="300.362,586.703 297.816,578.972 295.27,586.703 287.066,586.703 293.761,591.513 291.215,599.34 
		297.816,594.531 304.417,599.34 301.965,591.513 308.566,586.703 	"/>
	<polygon fill="#FFFFFF" points="265.661,596.04 263.115,588.212 260.569,596.04 252.459,596.04 259.061,600.85 256.514,608.675 
		263.115,603.771 269.81,608.675 267.264,600.85 273.865,596.04 	"/>
	<polygon fill="#FFFFFF" points="230.489,587.458 227.943,579.632 225.396,587.458 217.287,587.458 223.888,592.267 
		221.342,600.095 227.943,595.189 234.638,600.095 232.092,592.267 238.693,587.458 	"/>
	<polygon fill="#FFFFFF" points="205.029,561.243 202.483,553.512 199.937,561.243 191.733,561.243 198.428,566.053 
		195.882,573.878 202.483,569.07 209.084,573.878 206.632,566.053 213.233,561.243 	"/>
	<polygon fill="#FFFFFF" points="193.242,534.181 199.843,538.99 197.296,531.163 203.898,526.354 195.788,526.354 193.242,518.623 
		190.696,526.354 182.492,526.354 189.092,531.163 186.547,538.99 	"/>
	<polygon fill="#FFFFFF" points="202.483,483.544 199.937,491.371 191.733,491.371 198.428,496.18 195.882,503.912 202.483,499.104 
		209.084,503.912 206.632,496.18 213.233,491.371 205.029,491.371 	"/>
	<polygon fill="#FFFFFF" points="221.248,478.452 227.848,473.644 234.448,478.452 231.903,470.721 238.504,465.911 
		230.394,465.911 227.848,458.084 225.302,465.911 217.099,465.911 223.699,470.721 	"/>
</g>
</svg>
