<?xml version="1.0" encoding="utf-8"?>
<!-- Generator: Adobe Illustrator 19.2.1, SVG Export Plug-In . SVG Version: 6.00 Build 0)  -->
<svg version="1.1" id="Livello_1" xmlns="http://www.w3.org/2000/svg" xmlns:xlink="http://www.w3.org/1999/xlink" x="0px" y="0px"
	 viewBox="0 0 224.7 113.3" style="enable-background:new 0 0 224.7 113.3;" xml:space="preserve">
<style type="text/css">
	.st0{fill:#FFFFFF;}
	.st1{fill-rule:evenodd;clip-rule:evenodd;fill:#FFFFFF;}
</style>
<g>
	<g>
		<path class="st0" d="M70.7,55.1c-2.2-2.2-5.1-3.6-8.3-3.6c-6,0-10.9,5.3-10.9,11.2S56.4,74,62.5,74c3.1,0,6-1.4,8.2-3.6v3.7
			c-2.3,1.7-5.2,2.7-8.1,2.7c-7.7,0-14.1-6.2-14.1-13.9c0-7.8,6.4-14.1,14.1-14.1c3,0,5.7,0.9,8.1,2.7V55.1z"/>
		<path class="st0" d="M79.9,68.6l-3.3,7.7h-3.3l12.5-28.4L98,76.3h-3.3l-3.2-7.7H79.9z M85.7,54.9l-4.6,10.9h9.2L85.7,54.9z"/>
		<path class="st0" d="M104.5,47.6l9.9,22.8l9.9-22.8l5.5,28.7h-3.1l-3.5-18.4h-0.1l-8.7,19.5l-8.7-19.5h-0.1l-3.5,18.4H99
			L104.5,47.6z"/>
		<path class="st0" d="M136.2,76.3h-3V49.2h4.5c2.3,0,4.8,0.1,6.7,1.4c2,1.4,3.1,3.8,3.1,6.2c0,2.2-0.9,4.4-2.6,5.8
			c-1.8,1.5-4.2,1.8-6.4,1.8h-2.2V76.3z M136.2,61.6h2c3.3,0,6.2-1,6.2-4.9c0-4.4-3.6-4.8-7.1-4.8h-1.1V61.6z"/>
		<path class="st0" d="M178.3,62.8c0,7.8-6.4,14-14.1,14c-7.7,0-14.1-6.2-14.1-14c0-7.8,6.4-14.1,14.1-14.1
			C171.8,48.7,178.3,55,178.3,62.8z M153,62.7c0,6.1,5,11.2,11.1,11.2s11.1-5.1,11.1-11.2c0-6.2-4.9-11.2-11.1-11.2
			C157.9,51.5,153,56.6,153,62.7z"/>
		<path class="st0" d="M6.8,104.6l-3.3,7.7H0.2l12.5-28.4l12.2,28.4h-3.3l-3.2-7.7H6.8z M12.6,90.9L8,101.8h9.2L12.6,90.9z"/>
		<path class="st0" d="M30.9,109.5h7.5v2.8H27.9V85.2h3V109.5z"/>
		<path class="st0" d="M44.4,109.5h7.5v2.8H41.4V85.2h3V109.5z"/>
		<path class="st0" d="M54.9,85.2h14.1V88H57.9V96h10.7v2.8H57.9v10.7h11.1v2.8H54.9V85.2z"/>
		<path class="st0" d="M105.9,91.1c-2.2-2.2-5.1-3.6-8.3-3.6c-6,0-10.9,5.3-10.9,11.2s4.9,11.2,11,11.2c3.1,0,6-1.4,8.2-3.6v3.7
			c-2.3,1.7-5.2,2.7-8.1,2.7c-7.7,0-14.1-6.2-14.1-13.9c0-7.8,6.4-14.1,14.1-14.1c3,0,5.7,0.9,8.1,2.7V91.1z"/>
		<path class="st0" d="M137.9,98.8c0,7.8-6.4,14-14.1,14c-7.7,0-14.1-6.2-14.1-14c0-7.8,6.4-14.1,14.1-14.1
			C131.5,84.7,137.9,91,137.9,98.8z M112.6,98.7c0,6.1,5,11.2,11.1,11.2c6.2,0,11.1-5.1,11.1-11.2c0-6.2-4.9-11.2-11.1-11.2
			C117.5,87.5,112.6,92.6,112.6,98.7z"/>
		<path class="st0" d="M145.5,83.6l9.9,22.8l9.9-22.8l5.5,28.7h-3.1l-3.5-18.4h-0.1l-8.7,19.5l-8.7-19.5h-0.1l-3.5,18.4H140
			L145.5,83.6z"/>
		<path class="st0" d="M174.3,85.2h14.1V88h-11.1V96H188v2.8h-10.7v10.7h11.1v2.8h-14.1V85.2z"/>
		<path class="st0" d="M200.7,112.3h-3V88h-6.6v-2.8h16.2V88h-6.6V112.3z"/>
		<path class="st0" d="M210.4,85.2h14.1V88h-11V96h10.7v2.8h-10.7v10.7h11v2.8h-14.1V85.2z"/>
	</g>
	<path class="st1" d="M112,17.5c0-1.1,0.5-1.9,1.2-2.8c0.1-0.2,0.4-0.3,0.7-0.4c0.4-0.2,0.9-0.4,1.3-0.4c0.6-0.1,1.2,0,1.7,0.1
		c0.3,0,0.7,0.1,1,0.2c0.5,0.2,1,0.5,1.2,1c0.1,0.3,0.4,0.6,0.5,0.9c0.2,0.5,0.3,1,0.2,1.6c0,0.4,0,0.8-0.1,1.2
		c-0.1,0.5-0.3,0.8-0.7,1.2c-0.1,0.1-0.2,0.2-0.3,0.3c-0.1,0.1-0.2,0.2-0.3,0.3c-0.3,0.2-0.6,0.4-1,0.5c-0.3,0.1-0.7,0.2-1,0.3
		c-0.6,0.1-1.2,0-1.8-0.3c-0.7-0.3-1.3-0.7-1.9-1.3C112.2,19.2,112.1,18.4,112,17.5 M115.9,20.5c0.2,0,0.4,0,0.6-0.1
		c0.5-0.1,1-0.1,1.4-0.5c0.1-0.1,0.2-0.2,0.4-0.2c0.6-0.4,0.8-1,0.8-1.6c0-0.7,0-1.4-0.5-2.1c-0.3-0.4-0.5-0.9-1-1.1
		c-0.6-0.2-1.2-0.3-1.8-0.1c-0.5,0.2-1.1,0.1-1.5,0.6c-0.2,0.3-0.6,0.4-0.7,0.7c-0.1,0.3-0.3,0.6-0.3,0.9c0,0.3,0,0.7,0,1.1
		c0.1,0.3,0.2,0.7,0.4,0.9c0.3,0.4,0.7,0.7,1.1,1C115.1,20.4,115.4,20.6,115.9,20.5 M114.2,39.9c0,1-0.1,2-0.1,3
		c0,0.7-0.1,1.4-0.1,2.1c0,0.7,0.1,1.4,0.1,2c0,0.1,0,0.3,0.1,0.4c0.1,0.1,0.2,0.3,0.4,0.2c0.2-0.1,0.3-0.5,0.3-0.7
		c0.1-0.2,0.1-0.4,0.1-0.7c0-0.2,0-0.5,0-0.8c0-0.3,0.1-0.6,0.1-0.9c0-0.3-0.1-0.5,0-0.8c0-0.8,0.1-1.5,0.2-2.3
		c0-0.4,0.1-0.7,0.1-1.1c0-0.2,0-0.3,0.1-0.5c0-0.1,0.1-0.3,0.1-0.4c0-0.1,0-0.3,0-0.4c0-0.1,0-0.2,0-0.4c0-0.3,0-0.6,0.1-0.9
		c0-0.6-0.1-1.1,0-1.7c0.1-0.5,0-0.9,0.1-1.4c0-0.6,0-1.2,0-1.7c0-0.4,0-0.8-0.3-1.2c-0.1-0.1-0.3-0.2-0.4-0.2
		c-0.1,0-0.3,0.2-0.3,0.3c-0.1,0.2-0.1,0.4-0.1,0.6c0,0.3,0,0.6,0,0.9c0,0.6-0.1,1.2-0.2,1.8c0,0.5,0,1.1,0,1.6
		c0,0.9-0.1,1.8-0.1,2.6C114.2,39.7,114.2,39.8,114.2,39.9 M127.8,15.3c-0.1-0.5,0-1.1,0.4-1.5c0.3-0.4,0.6-0.6,1.1-0.7
		c0.4-0.1,0.8-0.2,1.2-0.1c0.6,0.1,1.1,0.3,1.4,0.8c0.3,0.4,0.5,0.9,0.4,1.4c0,0.3-0.2,0.6-0.3,0.9c-0.1,0.5-0.4,0.8-0.8,1
		c-0.2,0.1-0.5,0.2-0.8,0.2c-0.4,0-0.7,0-1.1-0.1c-0.7-0.2-1.2-0.7-1.4-1.4c0,0,0-0.1,0-0.2C127.8,15.4,127.8,15.4,127.8,15.3
		 M129.9,13.6c-0.2,0-0.4,0.1-0.6,0.1c-0.1,0-0.2,0.1-0.2,0.2c-0.2,0.4-0.3,0.9-0.2,1.3c0.1,0.3,0.2,0.7,0.6,0.8
		c0.2,0.1,0.4,0.1,0.6,0.1c0.4,0.1,0.7-0.1,1-0.3c0.1,0,0.2-0.1,0.2-0.2c0.2-0.4,0.2-0.8,0.1-1.2c0-0.1-0.1-0.2-0.1-0.3
		C131,13.7,130.4,13.5,129.9,13.6 M115.7,25.9c0.4,0,0.9,0.1,1.3,0.3c0.4,0.1,0.5,0.4,0.8,0.7c0.2,0.4,0.4,0.7,0.4,1.2
		c0,0.3-0.1,0.7-0.3,1c-0.2,0.3-0.4,0.5-0.6,0.8c-0.4,0.5-1,0.7-1.6,0.6c-0.4-0.1-0.9-0.2-1.2-0.4c-0.9-0.6-1.2-2.2-0.7-2.9
		c0.2-0.3,0.4-0.5,0.6-0.7c0.1-0.1,0.2-0.1,0.3-0.2C114.9,26.1,115.3,25.9,115.7,25.9 M115.9,26.6c-0.4,0-0.7,0.1-1,0.4
		c-0.1,0.1-0.1,0.3-0.2,0.4c-0.2,0.3-0.2,0.6-0.2,0.9c0,0.6,0.4,0.9,0.9,1.2c0.5,0.3,0.9,0.1,1.3-0.1c0.5-0.3,0.6-0.7,0.7-1.3
		c0.1-0.4-0.4-1.2-0.7-1.3C116.4,26.7,116.1,26.7,115.9,26.6 M129.9,26.6c0,0.2,0,0.4,0,0.6c-0.1,0.3-0.2,0.7-0.4,0.9
		c-0.2,0.2-0.4,0.3-0.7,0.5c-0.2,0.1-0.3,0.2-0.5,0.3c-0.3,0.2-0.7,0.1-1,0.1c-0.2,0-0.2,0-0.4,0c0,0-0.2-0.1-0.2-0.1
		c-0.5-0.4-1.1-0.7-1.2-1.5c-0.2-0.9,0-1.6,0.6-2.2c0.3-0.2,0.6-0.5,1-0.5c0.4-0.1,0.8-0.1,1.2,0c0.8,0.2,1.4,0.6,1.7,1.4
		c0.1,0.2,0,0.3,0.1,0.5C129.9,26.5,129.9,26.6,129.9,26.6 M129.3,26.6c-0.1-0.5-0.3-1-0.8-1.3c-0.3-0.2-0.6-0.1-0.9-0.1
		c-0.5,0-0.9,0.3-1.2,0.8c-0.2,0.4-0.1,0.8,0,1.3c0.1,0.3,0.4,0.4,0.5,0.6c0.2,0.2,0.4,0.4,0.7,0.4c0.2,0,0.4,0,0.7,0
		c0.3,0,0.6-0.2,0.8-0.4C129.2,27.4,129.4,27.1,129.3,26.6 M107.7,30.6c0-1.1,1-2.2,1.9-2.3c0.6,0,1.3-0.1,1.8,0.5
		c0.3,0.4,0.7,0.8,0.7,1.3c0.1,0.7-0.2,1.4-0.6,2c-0.3,0.5-0.9,0.7-1.5,0.7C108.7,32.8,107.8,31.9,107.7,30.6 M109.7,29
		c0,0-0.2,0.1-0.2,0c-0.1,0-0.2,0-0.3,0.1c-0.5,0.3-0.6,0.7-0.6,1.2c0,0.5,0.3,0.9,0.6,1.2c0.2,0.2,0.7,0.3,1,0.3
		c0.8,0,1.2-0.5,1.3-1.2c0-0.4,0-0.9-0.4-1.2c-0.2-0.2-0.8-0.5-1.2-0.4C109.9,29,109.9,29,109.7,29 M119.1,10.8
		c-0.9-0.1-1.5-0.5-2-1.2c-0.4-0.6-0.4-1.2,0-1.9c0-0.1,0.1-0.2,0.2-0.3c0.1-0.1,0.1-0.1,0.2-0.2c0.1-0.1,0.2-0.2,0.3-0.3
		c0,0,0.1-0.1,0.1-0.1c0.2-0.1,0.4-0.2,0.6-0.2c0.2,0,0.4-0.1,0.7-0.1c0.4,0.1,0.9,0,1.3,0.3c0.5,0.3,0.8,0.7,0.9,1.3
		c0.1,0.4,0.1,0.8-0.1,1.2c-0.3,0.5-0.5,1-1.1,1.2C119.8,10.7,119.5,10.8,119.1,10.8 M118,8.6c0,0.1,0,0.2,0,0.3
		c0,0.7,0.7,1.3,1.4,1.3c0.2,0,0.5-0.1,0.7-0.3c0.4-0.2,0.6-0.6,0.7-1.1c0-0.5-0.2-0.9-0.5-1.2c0,0-0.1,0-0.1,0
		c-0.4-0.2-0.8-0.2-1.2-0.2c-0.2,0-0.6,0.2-0.7,0.3C118.2,7.9,118.1,8.3,118,8.6 M123.9,29.9c0.1,0.6-0.2,1.1-0.6,1.5
		c-0.6,0.7-1.4,0.7-2.2,0.5c-0.7-0.2-1.2-0.6-1.5-1.2c-0.2-0.6-0.1-1.1,0.2-1.7c0.1-0.2,0.2-0.4,0.4-0.6c0.1-0.1,0.2-0.1,0.3-0.2
		c0.7-0.5,1.5-0.5,2.3-0.2c0.5,0.2,0.8,0.5,1,1.1c0.1,0.3,0.1,0.3,0.2,0.6C123.9,29.8,123.9,29.8,123.9,29.9 M121.6,28.6
		c-0.4-0.1-0.6,0.2-0.7,0.5c-0.2,0.3-0.4,0.6-0.3,0.9c0.1,0.2,0,0.5,0.1,0.7c0.2,0.4,0.5,0.6,1,0.7c1.1,0.3,1.8-1.1,1.5-2
		c-0.1-0.3-0.4-0.8-0.8-0.8C122.1,28.6,121.9,28.6,121.6,28.6 M126.5,10.9c-0.3,0-0.7-0.1-1-0.2c-0.5-0.1-0.8-0.4-1-0.8
		c-0.3-0.4-0.5-0.7-0.5-1.2c0-0.5,0.2-1,0.6-1.4c0.3-0.3,0.6-0.5,0.9-0.6c0.7-0.2,1.4-0.1,2,0.3c0.4,0.3,0.7,0.7,0.8,1.2
		c0,0.3,0.1,0.6,0.1,0.9c-0.1,0.7-0.5,1.3-1.2,1.6C126.9,10.7,126.9,10.9,126.5,10.9 M126.6,10.1c0.3,0,0.3,0,0.8-0.4
		c0.5-0.4,0.5-0.9,0.4-1.5c-0.1-0.3-0.2-0.5-0.4-0.7c-0.5-0.5-1.3-0.2-1.8,0.1c-0.7,0.5-0.6,1.2-0.1,1.9
		C125.7,10,126.1,10.1,126.6,10.1 M108.9,26.6c-0.3,0-0.7-0.1-1-0.1c-0.5-0.1-0.8-0.4-1.1-0.8c-0.3-0.4-0.5-0.7-0.5-1.2
		c0-0.6,0.2-1,0.6-1.5c0.2-0.2,0.4-0.4,0.6-0.5c0.6-0.2,1.3-0.3,1.9,0c0.7,0.3,1,0.8,1.2,1.5c0.1,0.5,0.1,1-0.2,1.4
		c-0.2,0.4-0.5,0.7-0.9,0.9c-0.1,0-0.1,0.1-0.2,0.1C109.2,26.5,109.1,26.5,108.9,26.6 M109,25.8c0.4,0.1,0.6-0.2,0.8-0.4
		c0.3-0.3,0.4-0.6,0.3-1c0-0.4-0.2-0.8-0.5-1.1c-0.2-0.1-0.8-0.3-1-0.2c-0.3,0.2-0.7,0.4-1,0.6c-0.3,0.2-0.3,0.6-0.2,0.9
		C107.7,25.3,108.1,25.8,109,25.8 M128.5,23c-0.5,0.1-0.9,0-1.3-0.2c-0.3-0.2-0.5-0.4-0.8-0.7c-0.3-0.3-0.5-0.8-0.5-1.2
		c0-0.5,0.2-1,0.6-1.4c0.2-0.2,0.4-0.4,0.7-0.5c0.6-0.2,1.2-0.3,1.9,0c0.8,0.3,1.1,0.9,1.3,1.7c0.1,0.7-0.1,1.3-0.6,1.8
		c-0.3,0.2-0.6,0.4-0.9,0.6C128.8,23,128.6,23,128.5,23 M128.6,22.2c0.4,0.1,0.7-0.2,0.9-0.5c0.2-0.2,0.2-0.6,0.2-0.9
		c0-0.4-0.1-0.9-0.5-1.1c-0.1-0.1-0.2-0.2-0.4-0.2c-0.1,0-0.3,0-0.4,0c-0.1,0-0.2,0-0.2,0c-0.4,0.1-0.7,0.3-1,0.6
		c-0.3,0.3-0.3,0.6-0.2,0.9C127.3,21.8,127.7,22.2,128.6,22.2 M122.5,5.8c-0.2,0-0.8-0.1-1.1-0.4c-0.4-0.3-0.9-0.7-0.9-1.4
		c0-0.3,0-0.6,0.1-0.9c0.1-0.3,0.3-0.7,0.5-1c0.3-0.3,0.6-0.6,1.1-0.5c0.1,0,0.1,0,0.2,0c0.4,0,0.7,0,1.1,0.1c0.2,0,0.3,0.2,0.5,0.3
		c0.2,0.2,0.4,0.3,0.5,0.5c0.2,0.4,0.4,0.8,0.2,1.2c-0.1,0.3-0.2,0.5-0.3,0.8c-0.2,0.5-0.5,0.7-0.9,0.9
		C123.1,5.6,122.8,5.8,122.5,5.8 M122.9,2.3c-0.3,0-0.5,0.1-0.7,0.2c-0.4,0.1-0.7,0.4-0.8,0.8c-0.1,0.4,0,0.7,0.3,1.1
		c0.3,0.4,0.7,0.4,1.1,0.4c0.5,0,1-0.4,1.1-0.9c0.1-0.7-0.2-1-0.7-1.4C123.2,2.4,123,2.3,122.9,2.3 M107,3.6c0.9,0,1.6,0.3,2,1.1
		c0.2,0.4,0.4,0.9,0.2,1.5c-0.1,0.3,0,0.5-0.2,0.8c-0.3,0.4-0.7,0.7-1.2,0.9c-0.6,0.2-1.2,0.3-1.7,0c-0.5-0.3-0.9-0.7-1-1.3
		C105,6.2,105,5.8,105,5.5c0-0.4,0.2-0.7,0.4-1.1c0.3-0.4,0.7-0.7,1.2-0.8C106.7,3.7,106.9,3.6,107,3.6 M107.4,7.1
		c0.5,0,0.8-0.3,1-0.6c0.2-0.3,0.3-0.7,0.1-1.1c0-0.1-0.1-0.2-0.2-0.4c-0.1-0.1-0.1-0.3-0.2-0.4c-0.4-0.2-0.8-0.4-1.3-0.3
		c-0.1,0-0.2,0.1-0.3,0.2c-0.1,0-0.1,0.1-0.2,0.1c-0.3,0.2-0.5,0.3-0.5,0.6c0,0.3,0.1,0.7,0.2,1c0,0.1,0.1,0.2,0.2,0.3
		C106.5,6.9,106.9,7.1,107.4,7.1 M101.3,22.6c0.1-0.4,0.1-0.9,0.4-1.3c0.3-0.3,0.6-0.6,1-0.7c0.5-0.2,1-0.3,1.5,0
		c0.4,0.2,0.8,0.3,1,0.7c0.1,0.2,0.2,0.3,0.3,0.5c0.2,0.4,0.3,0.8,0.2,1.2c0,0.2-0.1,0.4-0.2,0.6c-0.1,0.3-0.2,0.6-0.4,0.8
		c-0.2,0.2-0.5,0.3-0.8,0.3c-0.9,0.2-1.8,0.1-2.5-0.5C101.5,23.7,101.3,23.3,101.3,22.6 M103.8,21c-0.2,0-0.5,0.1-0.8,0.3
		c-0.3,0.2-0.6,0.4-0.6,0.8c0,0.3,0,0.6,0.1,0.8c0,0.2,0.1,0.4,0.2,0.5c0.3,0.5,1.3,0.7,1.9,0.5c0.4-0.2,0.9-1,0.8-1.4
		c-0.1-0.2-0.2-0.5-0.3-0.7C104.7,21.3,104.2,21.1,103.8,21 M114.2,0.9c1.3,0,2.2,0.8,2.2,1.8c0,0.5,0,1.1-0.5,1.5
		C115.4,4.7,114.8,5,114,5c-0.9,0-1.7-0.8-1.8-1.6c-0.1-0.7,0-1.2,0.4-1.7C113.1,1.1,113.7,1,114.2,0.9 M114.8,1.6
		c-0.1,0-0.1,0-0.2,0c-0.4,0-0.9,0.2-1.2,0.4c-0.3,0.2-0.3,0.5-0.3,0.8c0,0.3,0.3,1,0.6,1.2c0.4,0.2,0.9,0.3,1.3,0.1
		c0.2-0.2,0.5-0.4,0.6-0.6c0.3-0.6,0.1-1.1-0.4-1.5C115.1,1.7,115,1.6,114.8,1.6 M126.6,16.6c0,0.3-0.2,0.6-0.4,0.9
		c-0.4,0.7-1.4,0.8-2.1,0.7c-0.6-0.1-1.1-0.4-1.4-0.9c-0.2-0.3-0.4-0.6-0.4-1c0-0.5,0.1-1,0.4-1.3c0.2-0.2,0.4-0.3,0.6-0.4
		c0.4-0.2,0.9-0.2,1.3-0.2c0.5,0,0.8,0.2,1.2,0.5C126.5,15.2,126.6,15.8,126.6,16.6 M126,16.3c0-0.2,0-0.4-0.1-0.6
		c-0.1-0.4-0.5-0.6-0.9-0.7c-0.1,0-0.3-0.1-0.4-0.1c-0.4,0.1-0.7,0.4-0.9,0.7c-0.1,0.2-0.1,0.4-0.2,0.6c0,0.4,0.1,0.7,0.4,1
		c0.2,0.2,0.4,0.4,0.8,0.4c0.2,0,0.5,0,0.7-0.2C125.9,17.2,126.1,16.8,126,16.3 M103.1,19.6C103.1,19.6,103.1,19.6,103.1,19.6
		c-0.5,0-1.1-0.1-1.5-0.3c-0.7-0.4-1.1-1.4-0.9-2.2c0.1-0.4,0.3-0.8,0.6-1.2c0.1-0.1,0.2-0.1,0.3-0.2c0.1,0,0.2-0.1,0.3-0.1
		c0.4-0.3,1-0.3,1.4-0.3c0.3,0,0.6,0.3,0.9,0.5c0.1,0,0.1,0.1,0.1,0.1c0.4,0.3,0.6,0.7,0.6,1.2c0,0.5,0,1-0.3,1.4
		c-0.3,0.4-0.6,0.8-1.1,0.9C103.5,19.5,103.3,19.6,103.1,19.6 M104.4,17.4c0-0.9-0.7-1.5-1.6-1.5c-0.7,0-1.3,0.7-1.3,1.7
		c0,0.7,0.8,1.3,1.6,1.2C103.9,18.8,104.4,18.2,104.4,17.4 M107.8,15.2c-0.3,0-0.6-0.1-0.9-0.2c-0.4-0.1-0.7-0.3-0.9-0.7
		c-0.2-0.3-0.3-0.6-0.4-0.9c-0.2-0.4,0.1-0.8,0.3-1.2c0.1-0.3,0.3-0.4,0.6-0.6c0.5-0.4,1-0.3,1.5-0.3c0.4,0,0.8,0.3,1.1,0.5
		c0.4,0.3,0.6,0.8,0.7,1.3c0,0.5-0.2,0.9-0.3,1.3c-0.1,0.2-0.3,0.4-0.5,0.4C108.5,15,108.2,15.2,107.8,15.2 M106.5,13.2
		c0,0.1,0,0.1,0,0.2c0,0.3,0.1,0.6,0.4,0.8c0.2,0.2,0.5,0.4,0.7,0.4c0.4,0,0.9-0.1,1.2-0.5c0.3-0.4,0.3-0.7,0-1.1
		c-0.3-0.5-0.8-0.9-1.5-0.8C106.9,12.2,106.5,12.7,106.5,13.2 M102.6,9.9c1-0.1,1.6,0.7,1.8,1.6c0.1,0.5,0,0.9-0.3,1.3
		c-0.6,0.9-1.5,1.2-2.6,0.8c-0.2-0.1-0.5-0.2-0.7-0.4c-0.4-0.3-0.5-0.7-0.6-1.2c0-0.2-0.1-0.4,0-0.6c0-0.2,0.1-0.4,0.3-0.6
		c0.1-0.2,0.3-0.3,0.4-0.5c0.3-0.3,0.7-0.4,1.1-0.4C102.3,10,102.4,10,102.6,9.9 M101.2,11.8c0,0.4,0.4,1,0.7,1.2
		c0.5,0.3,1,0.2,1.5-0.1c0.1-0.1,0.3-0.3,0.3-0.4c0.1-0.3,0.1-0.6,0-0.9c-0.1-0.3-0.2-0.6-0.4-0.7c-0.3-0.2-0.7-0.3-1.1-0.2
		C101.5,10.8,101.2,11.1,101.2,11.8 M114.6,5.8c-0.1-0.1-0.2-0.2-0.4-0.2c-0.1,0-0.2,0.1-0.2,0.2c0,0.2,0,0.4,0,0.6
		c0,0.6,0,1.3,0.1,1.9c0,0.6,0,1.3,0.1,1.9c0,0.6,0.1,1.1,0.1,1.7c0,0.4,0.1,0.7,0.1,1.1c0,0.1,0.1,0.2,0.1,0.2
		c0.1,0,0.2-0.1,0.3-0.1c0.1-0.2,0.1-0.5,0.1-0.7c0-0.3,0-0.6,0-0.9c0-0.3,0.1-0.5,0.1-0.8c0-0.3,0-0.6,0-0.9c0-0.2,0-0.5,0-0.7
		c0-0.2,0-0.3-0.1-0.5c0-0.5,0-1,0-1.6C115,6.6,114.9,6.2,114.6,5.8 M113.1,13.1c-0.3-0.4-0.6-0.8-0.9-1.3c-0.4-0.5-0.7-1-1.1-1.6
		c-0.3-0.4-0.5-0.7-0.8-1.1c-0.2-0.3-0.4-0.6-0.6-0.8c-0.2-0.2-0.3-0.4-0.5-0.5c-0.1-0.1-0.3-0.1-0.4,0c-0.1,0-0.2,0.2-0.2,0.2
		c0.1,0.2,0.2,0.5,0.3,0.7c0,0.1,0.1,0.2,0.2,0.2c0.5,0.8,1,1.6,1.6,2.4c0.2,0.3,0.5,0.6,0.8,0.9c0.3,0.4,0.7,0.9,1,1.3
		c0.1,0.1,0.2,0.2,0.3,0.1c0.1,0,0.2-0.1,0.2-0.2c0,0,0,0,0-0.1C113.2,13.3,113.1,13.2,113.1,13.1 M119.8,20.8c-0.1,0-0.2,0-0.3,0.1
		c0,0,0,0.1,0,0.2c0,0.2,0.1,0.4,0.3,0.5c0.8,0.6,1.5,1.2,2.3,1.8c0.7,0.5,1.4,1,2.1,1.5c0.2,0.1,0.4,0.2,0.6,0.3
		c0.3,0.1,0.5-0.3,0.3-0.5c-0.3-0.3-0.6-0.6-1-0.9c-0.4-0.3-0.8-0.5-1.2-0.8c-0.3-0.2-0.6-0.5-0.9-0.8c-0.5-0.4-1-0.7-1.5-1.1
		c0,0-0.1-0.1-0.1-0.1c-0.1-0.1-0.2-0.1-0.3-0.1C120,20.8,120,20.8,119.8,20.8C119.9,20.8,119.8,20.8,119.8,20.8 M110.8,27.7
		c0,0.1,0.1,0.2,0.3,0.3c0.2,0.1,0.4,0,0.5-0.2c0.2-0.3,0.3-0.6,0.5-0.9c0.4-0.8,0.7-1.6,1.1-2.4c0.1-0.2,0.1-0.3,0.2-0.5
		c0.3-0.7,0.7-1.4,0.8-2.2c0-0.1-0.1-0.2-0.1-0.3c-0.1-0.1-0.3,0-0.3,0.1c-0.3,0.7-0.7,1.4-1,2.1c-0.3,0.6-0.6,1.3-0.9,1.9
		c-0.2,0.4-0.4,0.9-0.7,1.3c0,0.1-0.1,0.1-0.1,0.2c0,0.1-0.1,0.2-0.1,0.3C110.8,27.5,110.8,27.6,110.8,27.7
		C110.8,27.7,110.8,27.7,110.8,27.7 M120.8,26.7c-0.3-0.5-0.5-1.1-0.8-1.6c-0.3-0.5-0.6-1-0.9-1.5c-0.3-0.5-0.5-1-0.8-1.5
		c-0.1-0.2-0.3-0.4-0.6-0.4c-0.2,0-0.3,0.1-0.2,0.2c0.3,0.6,0.5,1.3,0.8,1.9c0.3,0.5,0.6,1,0.9,1.5c0.1,0.2,0.2,0.4,0.3,0.6
		c0.2,0.4,0.5,0.9,0.7,1.3c0.1,0.1,0.2,0.2,0.3,0.3c0.2,0.1,0.3-0.2,0.3-0.3c0,0,0-0.1,0-0.1C120.9,26.9,120.8,26.8,120.8,26.7
		 M120.7,18.7c-0.2,0.1-0.4,0.2-0.4,0.5c0,0.1,0.2,0.3,0.4,0.3c0.3,0.1,0.6,0.1,0.9,0.2c0.6,0.1,1.2,0.3,1.9,0.4s1.2,0.3,1.9,0.2
		c0.1,0,0.2-0.1,0.3-0.2c0.1-0.2,0-0.3-0.2-0.4c-0.1,0-0.2,0-0.3-0.1c-0.4-0.1-0.9-0.2-1.3-0.3c-0.6-0.1-1.2-0.2-1.7-0.4
		c-0.1,0-0.1,0-0.2-0.1c-0.1,0-0.2-0.1-0.3-0.1c-0.1,0-0.1,0-0.2-0.1c0,0-0.1,0-0.1,0C121.1,18.7,120.9,18.7,120.7,18.7 M110.5,18.2
		c0.1,0,0.2,0,0.2,0c0.1,0,0.3-0.1,0.4-0.1c0.2,0,0.4-0.1,0.5-0.2c0.1-0.1-0.1-0.2-0.2-0.2c-0.2,0-0.4-0.1-0.6-0.1
		c-0.1,0-0.3,0-0.4,0c-0.8,0-1.5-0.1-2.3-0.1c-0.5,0-1,0-1.5,0c-0.3,0-0.5-0.1-0.8-0.1c-0.1,0-0.2,0.1-0.2,0.2c0,0.1,0,0.2,0,0.3
		c0.1,0.2,0.2,0.3,0.5,0.3c0.6,0.1,1.2,0.1,1.8,0c0.1,0,0.3,0,0.4,0c0.4,0,0.8,0.1,1.2,0.1C109.8,18.2,110.2,18.2,110.5,18.2
		 M120.4,15.2c0.2-0.1,0.3-0.2,0.5-0.3c0.3-0.2,0.5-0.4,0.7-0.6c0.2-0.2,0.4-0.4,0.7-0.7c0.4-0.4,0.7-0.8,1.1-1.2
		c0.4-0.4,0.8-0.7,0.9-1.2c0-0.1,0-0.2,0-0.2c0-0.1,0-0.1-0.1-0.1c-0.1,0-0.1,0-0.2,0c-0.1,0.1-0.3,0.2-0.4,0.3
		c-0.4,0.4-0.9,0.8-1.3,1.3c-0.7,0.7-1.6,1.3-2.2,2.2c0,0.1-0.1,0.2,0,0.3c0,0.1,0.1,0.1,0.2,0.2C120.3,15.2,120.3,15.2,120.4,15.2
		C120.3,15.2,120.4,15.2,120.4,15.2 M106.9,21.3c0.1,0,0.2,0,0.3-0.1c0.6-0.2,1.2-0.5,1.9-0.7c0.7-0.3,1.5-0.5,2.2-0.9
		c0.1-0.1,0.3-0.1,0.3-0.2c0.1-0.1,0.1-0.2,0-0.3c0-0.1-0.2-0.2-0.3-0.2c-0.6,0.2-1.1,0.4-1.7,0.6c-0.6,0.2-1.2,0.5-1.8,0.8
		c-0.5,0.2-1,0.5-1.5,0.7c-0.1,0-0.1,0.1-0.1,0.2c0,0.1,0.1,0.1,0.2,0.1c0.1,0,0.2,0,0.2,0c0,0,0.1,0,0.1,0
		C106.8,21.3,106.9,21.3,106.9,21.3 M115.8,25.6c0.3,0.1,0.5,0,0.5-0.2c0.1-0.3,0.1-0.6,0.1-0.9c0-0.6,0.1-1.2,0.1-1.9
		c0-0.3-0.1-0.6-0.4-0.7c-0.1,0-0.4,0-0.4,0.1c-0.1,0.2-0.1,0.4-0.1,0.5c0,0.9-0.1,1.8-0.1,2.7C115.6,25.4,115.7,25.5,115.8,25.6
		 M111,22.5c0.2-0.1,0.4-0.3,0.6-0.4c0.2-0.2,0.4-0.4,0.6-0.6c0.2-0.2,0.3-0.5,0.4-0.8c0-0.1-0.1-0.3-0.2-0.4
		c-0.1-0.1-0.3,0-0.4,0.1c-0.5,0.5-1,1.1-1.4,1.6c0,0.1-0.1,0.2-0.1,0.2C110.6,22.5,110.8,22.6,111,22.5 M112,15.4
		c-0.2-0.2-0.5-0.4-0.7-0.6c-0.4-0.3-0.8-0.5-1.3-0.6c-0.2,0-0.4,0.1-0.4,0.3c0.1,0.1,0.2,0.3,0.3,0.4c0.1,0.1,0.2,0.1,0.3,0.2
		c0.5,0.3,1,0.5,1.5,0.8c0.2,0.1,0.4,0,0.4-0.4C112.1,15.5,112.1,15.4,112,15.4 M118.7,11.2C118.7,11.2,118.7,11.1,118.7,11.2
		c-0.2-0.1-0.3-0.1-0.4,0c-0.1,0-0.1,0.1-0.1,0.2c-0.2,0.6-0.4,1.2-0.5,1.9c0,0.2,0,0.3,0.1,0.4c0.2,0.1,0.4,0.1,0.5-0.1
		c0-0.1,0-0.2,0.1-0.2c0.1-0.1,0.1-0.3,0.2-0.4c0.1-0.2,0.1-0.5,0.2-0.7c0-0.3,0.1-0.5,0.1-0.8c0,0,0,0,0,0
		C118.8,11.3,118.8,11.2,118.7,11.2 M121,16.4c-0.2,0-0.4,0.1-0.6,0.1c-0.2,0-0.5,0.3-0.4,0.5c0.1,0.1,0.3,0.3,0.5,0.3
		c0.4,0,0.7-0.1,1.1-0.1c0.2,0,0.3-0.1,0.5-0.3c0,0,0-0.2,0-0.3c0,0-0.1-0.1-0.1-0.1c-0.1-0.1-0.2-0.1-0.3-0.1c-0.1,0-0.2,0-0.4,0
		C121.1,16.4,121,16.4,121,16.4C121,16.4,121,16.4,121,16.4 M121.5,6.1c-0.1-0.1-0.3-0.2-0.4-0.3c-0.1,0-0.3,0-0.3,0.2
		c0,0.2-0.1,0.3-0.2,0.5c-0.1,0.3,0,0.4,0.3,0.4C121.2,6.9,121.7,6.4,121.5,6.1 M127.7,15.9c0-0.4-0.2-0.6-0.4-0.6
		c-0.3,0-0.6,0.3-0.6,0.5c0,0.3,0.2,0.5,0.7,0.5C127.5,16.2,127.7,16.1,127.7,15.9 M105.7,12.5c0-0.2-0.3-0.4-0.6-0.4
		c-0.2,0-0.4,0.2-0.4,0.4c0,0.2,0.3,0.4,0.5,0.4C105.4,13,105.7,12.7,105.7,12.5"/>
</g>
</svg>
