{"asset":{"version":"2.0","generator":"babylon.js glTF exporter for maya 2018 v1.2.26"},"scene":0,"scenes":[{"nodes":[0,10],"extensions":{}}],"nodes":[{"children":[1],"translation":[0.0,0.0,0.0],"rotation":[0.0,0.0,0.0,1.0],"scale":[0.274485439,0.274485439,0.274485439],"name":"group1"},{"children":[2,3,4,5,6,7,8,9],"translation":[0.0,0.0,0.0],"rotation":[0.0,0.0,0.0,1.0],"scale":[3.763909,3.763909,3.763909],"name":"group2"},{"mesh":0,"translation":[-4.52698851,2.83867168,6.592601],"rotation":[0.0,0.0,0.0,1.0],"scale":[2.85193014,5.56246471,2.85193014],"name":"pCube8"},{"mesh":1,"translation":[6.2156105,1.4942168,8.364227],"rotation":[0.0,0.0,0.0,1.0],"scale":[3.03978324,2.85193014,3.70303559],"name":"pCube7"},{"mesh":2,"translation":[6.99921465,1.4942168,0.528185248],"rotation":[0.0,0.0,0.0,1.0],"scale":[2.85193014,2.85193014,2.85193014],"name":"pCube6"},{"mesh":3,"translation":[0.219334751,1.4942168,-3.083208],"rotation":[0.0,0.0,0.0,1.0],"scale":[2.85193014,2.85193014,2.85193014],"name":"pCube4"},{"mesh":4,"translation":[0.0,0.0,0.0],"rotation":[0.0,0.0,0.0,1.0],"scale":[22.75123,0.4860679,22.75123],"name":"pCube1"},{"mesh":5,"translation":[-6.594615,1.4942168,-7.716694],"rotation":[0.0,0.0,0.0,1.0],"scale":[2.85193014,2.85193014,2.85193014],"name":"pCube2"},{"mesh":6,"translation":[6.385959,1.20143211,-7.92111254],"rotation":[0.0,0.0,0.0,1.0],"scale":[2.85193014,2.0232594,2.85193014],"name":"pCube3"},{"mesh":7,"translation":[-6.867173,1.4942168,0.6303945],"rotation":[0.0,0.0,0.0,1.0],"scale":[2.85193014,2.85193014,2.85193014],"name":"pCube5"},{"translation":[0.0,0.0,0.0],"rotation":[0.0,0.0,0.0,1.0],"scale":[1.0,1.0,1.0],"name":"Default light"}],"meshes":[{"primitives":[{"attributes":{"POSITION":1,"NORMAL":2,"TANGENT":3,"TEXCOORD_0":4},"indices":0,"mode":4,"material":0}],"name":"pCube8"},{"primitives":[{"attributes":{"POSITION":6,"NORMAL":7,"TANGENT":8,"TEXCOORD_0":9},"indices":5,"mode":4,"material":1}],"name":"pCube7"},{"primitives":[{"attributes":{"POSITION":11,"NORMAL":12,"TANGENT":13,"TEXCOORD_0":14},"indices":10,"mode":4,"material":2}],"name":"pCube6"},{"primitives":[{"attributes":{"POSITION":16,"NORMAL":17,"TANGENT":18,"TEXCOORD_0":19},"indices":15,"mode":4,"material":3}],"name":"pCube4"},{"primitives":[{"attributes":{"POSITION":21,"NORMAL":22,"TANGENT":23,"TEXCOORD_0":24},"indices":20,"mode":4,"material":4}],"name":"pCube1"},{"primitives":[{"attributes":{"POSITION":26,"NORMAL":27,"TANGENT":28,"TEXCOORD_0":29},"indices":25,"mode":4,"material":5}],"name":"pCube2"},{"primitives":[{"attributes":{"POSITION":31,"NORMAL":32,"TANGENT":33,"TEXCOORD_0":34},"indices":30,"mode":4,"material":6}],"name":"pCube3"},{"primitives":[{"attributes":{"POSITION":36,"NORMAL":37,"TANGENT":38,"TEXCOORD_0":39},"indices":35,"mode":4,"material":7}],"name":"pCube5"}],"accessors":[{"bufferView":0,"componentType":5123,"count":36,"type":"SCALAR","name":"accessorIndices"},{"bufferView":1,"componentType":5126,"count":24,"max":[0.5,0.5,0.5],"min":[-0.5,-0.5,-0.5],"type":"VEC3","name":"accessorPositions"},{"bufferView":1,"byteOffset":288,"componentType":5126,"count":24,"type":"VEC3","name":"accessorNormals"},{"bufferView":2,"componentType":5126,"count":24,"type":"VEC4","name":"accessorTangents"},{"bufferView":3,"componentType":5126,"count":24,"type":"VEC2","name":"accessorUVs"},{"bufferView":0,"byteOffset":72,"componentType":5123,"count":36,"type":"SCALAR","name":"accessorIndices"},{"bufferView":1,"byteOffset":576,"componentType":5126,"count":24,"max":[0.5,0.5,0.5],"min":[-0.5,-0.5,-0.5],"type":"VEC3","name":"accessorPositions"},{"bufferView":1,"byteOffset":864,"componentType":5126,"count":24,"type":"VEC3","name":"accessorNormals"},{"bufferView":2,"byteOffset":384,"componentType":5126,"count":24,"type":"VEC4","name":"accessorTangents"},{"bufferView":3,"byteOffset":192,"componentType":5126,"count":24,"type":"VEC2","name":"accessorUVs"},{"bufferView":0,"byteOffset":144,"componentType":5123,"count":36,"type":"SCALAR","name":"accessorIndices"},{"bufferView":1,"byteOffset":1152,"componentType":5126,"count":24,"max":[0.5,0.5,0.5],"min":[-0.5,-0.5,-0.5],"type":"VEC3","name":"accessorPositions"},{"bufferView":1,"byteOffset":1440,"componentType":5126,"count":24,"type":"VEC3","name":"accessorNormals"},{"bufferView":2,"byteOffset":768,"componentType":5126,"count":24,"type":"VEC4","name":"accessorTangents"},{"bufferView":3,"byteOffset":384,"componentType":5126,"count":24,"type":"VEC2","name":"accessorUVs"},{"bufferView":0,"byteOffset":216,"componentType":5123,"count":36,"type":"SCALAR","name":"accessorIndices"},{"bufferView":1,"byteOffset":1728,"componentType":5126,"count":24,"max":[0.5,0.5,0.5],"min":[-0.5,-0.5,-0.5],"type":"VEC3","name":"accessorPositions"},{"bufferView":1,"byteOffset":2016,"componentType":5126,"count":24,"type":"VEC3","name":"accessorNormals"},{"bufferView":2,"byteOffset":1152,"componentType":5126,"count":24,"type":"VEC4","name":"accessorTangents"},{"bufferView":3,"byteOffset":576,"componentType":5126,"count":24,"type":"VEC2","name":"accessorUVs"},{"bufferView":0,"byteOffset":288,"componentType":5123,"count":36,"type":"SCALAR","name":"accessorIndices"},{"bufferView":1,"byteOffset":2304,"componentType":5126,"count":24,"max":[0.5,0.5,0.5],"min":[-0.5,-0.5,-0.5],"type":"VEC3","name":"accessorPositions"},{"bufferView":1,"byteOffset":2592,"componentType":5126,"count":24,"type":"VEC3","name":"accessorNormals"},{"bufferView":2,"byteOffset":1536,"componentType":5126,"count":24,"type":"VEC4","name":"accessorTangents"},{"bufferView":3,"byteOffset":768,"componentType":5126,"count":24,"type":"VEC2","name":"accessorUVs"},{"bufferView":0,"byteOffset":360,"componentType":5123,"count":36,"type":"SCALAR","name":"accessorIndices"},{"bufferView":1,"byteOffset":2880,"componentType":5126,"count":24,"max":[0.5,0.5,0.5],"min":[-0.5,-0.5,-0.5],"type":"VEC3","name":"accessorPositions"},{"bufferView":1,"byteOffset":3168,"componentType":5126,"count":24,"type":"VEC3","name":"accessorNormals"},{"bufferView":2,"byteOffset":1920,"componentType":5126,"count":24,"type":"VEC4","name":"accessorTangents"},{"bufferView":3,"byteOffset":960,"componentType":5126,"count":24,"type":"VEC2","name":"accessorUVs"},{"bufferView":0,"byteOffset":432,"componentType":5123,"count":36,"type":"SCALAR","name":"accessorIndices"},{"bufferView":1,"byteOffset":3456,"componentType":5126,"count":24,"max":[0.5,0.5,0.5],"min":[-0.5,-0.5,-0.5],"type":"VEC3","name":"accessorPositions"},{"bufferView":1,"byteOffset":3744,"componentType":5126,"count":24,"type":"VEC3","name":"accessorNormals"},{"bufferView":2,"byteOffset":2304,"componentType":5126,"count":24,"type":"VEC4","name":"accessorTangents"},{"bufferView":3,"byteOffset":1152,"componentType":5126,"count":24,"type":"VEC2","name":"accessorUVs"},{"bufferView":0,"byteOffset":504,"componentType":5123,"count":36,"type":"SCALAR","name":"accessorIndices"},{"bufferView":1,"byteOffset":4032,"componentType":5126,"count":24,"max":[0.5,0.5,0.5],"min":[-0.5,-0.5,-0.5],"type":"VEC3","name":"accessorPositions"},{"bufferView":1,"byteOffset":4320,"componentType":5126,"count":24,"type":"VEC3","name":"accessorNormals"},{"bufferView":2,"byteOffset":2688,"componentType":5126,"count":24,"type":"VEC4","name":"accessorTangents"},{"bufferView":3,"byteOffset":1344,"componentType":5126,"count":24,"type":"VEC2","name":"accessorUVs"}],"bufferViews":[{"buffer":0,"byteLength":576,"name":"bufferViewScalar"},{"buffer":0,"byteOffset":576,"byteLength":4608,"byteStride":12,"name":"bufferViewFloatVec3"},{"buffer":0,"byteOffset":5184,"byteLength":3072,"byteStride":16,"name":"bufferViewFloatVec4"},{"buffer":0,"byteOffset":8256,"byteLength":1536,"byteStride":8,"name":"bufferViewFloatVec2"}],"buffers":[{"uri":"box.bin","byteLength":9792}],"materials":[{"pbrMetallicRoughness":{"baseColorFactor":[0.3309859,0.0,0.3309859,1.0],"metallicFactor":0.0,"roughnessFactor":0.33},"emissiveFactor":[0.0,0.0,0.0],"alphaMode":"OPAQUE","name":"StingrayPBS6"},{"pbrMetallicRoughness":{"baseColorFactor":[0.415492952,0.415492952,0.0,1.0],"metallicFactor":0.0,"roughnessFactor":0.33},"emissiveFactor":[0.0,0.0,0.0],"alphaMode":"OPAQUE","name":"StingrayPBS1"},{"pbrMetallicRoughness":{"baseColorFactor":[0.346,0.0,0.0,1.0],"metallicFactor":0.0,"roughnessFactor":0.33},"emissiveFactor":[0.0,0.0,0.0],"alphaMode":"OPAQUE","name":"StingrayPBS2"},{"pbrMetallicRoughness":{"baseColorFactor":[0.0,0.0,1.0,1.0],"metallicFactor":0.0,"roughnessFactor":0.33},"emissiveFactor":[0.0,0.0,0.0],"alphaMode":"OPAQUE","name":"StingrayPBS5"},{"pbrMetallicRoughness":{"baseColorFactor":[0.08450704,0.08450704,0.08450704,1.0],"metallicFactor":0.0,"roughnessFactor":0.33},"emissiveFactor":[0.0,0.0,0.0],"alphaMode":"OPAQUE","name":"StingrayPBS8"},{"pbrMetallicRoughness":{"baseColorFactor":[0.0,0.228,0.08769259,1.0],"metallicFactor":0.0,"roughnessFactor":0.33},"emissiveFactor":[0.0,0.0,0.0],"alphaMode":"OPAQUE","name":"StingrayPBS7"},{"pbrMetallicRoughness":{"baseColorFactor":[0.0,0.387323946,0.0,1.0],"metallicFactor":0.0,"roughnessFactor":0.33},"emissiveFactor":[0.0,0.0,0.0],"alphaMode":"OPAQUE","name":"StingrayPBS3"},{"pbrMetallicRoughness":{"baseColorFactor":[0.0,0.338028163,0.338028163,1.0],"metallicFactor":0.0,"roughnessFactor":0.33},"emissiveFactor":[0.0,0.0,0.0],"alphaMode":"OPAQUE","name":"StingrayPBS4"}]}